<?xml version="1.0" standalone="no"?>
<!DOCTYPE svg PUBLIC "-//W3C//DTD SVG 20010904//EN"
 "http://www.w3.org/TR/2001/REC-SVG-20010904/DTD/svg10.dtd">
<svg version="1.0" xmlns="http://www.w3.org/2000/svg"
 width="750.000000pt" height="750.000000pt" viewBox="0 0 750.000000 750.000000"
 preserveAspectRatio="xMidYMid meet">
<metadata>
Created by potrace 1.11, written by Peter Selinger 2001-2013
</metadata>
<g transform="translate(0.000000,750.000000) scale(0.100000,-0.100000)"
fill="#000000" stroke="none">
<path d="M4895 5790 c3 -5 11 -10 16 -10 6 0 7 5 4 10 -3 6 -11 10 -16 10 -6
0 -7 -4 -4 -10z"/>
<path d="M4555 5781 c-4 -7 -15 -9 -26 -6 -25 8 -46 -4 -28 -16 11 -7 10 -9
-3 -9 -10 0 -18 6 -18 13 -1 7 -5 6 -13 -5 -7 -9 -20 -16 -28 -16 -36 2 -48
-3 -43 -17 5 -11 2 -13 -10 -9 -9 3 -16 1 -16 -5 0 -6 -7 -11 -15 -11 -17 0
-20 -16 -5 -23 6 -3 5 -4 -2 -3 -7 2 -22 -1 -33 -7 -11 -6 -46 -18 -78 -28
-48 -15 -58 -15 -53 -3 3 8 1 14 -5 14 -5 0 -12 -7 -15 -15 -4 -8 -19 -15 -34
-15 -20 0 -31 -6 -35 -20 -4 -11 -11 -17 -17 -14 -7 5 -9 -2 -4 -22 4 -19 3
-24 -3 -15 -7 11 -13 9 -31 -9 -18 -18 -24 -20 -32 -9 -7 12 -9 11 -7 -1 3
-29 -1 -41 -12 -34 -8 5 -8 1 0 -14 17 -31 12 -50 -5 -22 -15 25 -15 25 -10 2
3 -17 1 -22 -9 -19 -16 7 -35 -12 -35 -36 0 -10 -3 -16 -7 -14 -5 3 -8 -28 -8
-68 0 -40 3 -71 7 -69 4 3 10 -8 14 -23 3 -15 12 -42 20 -60 8 -17 14 -38 14
-46 0 -8 7 -31 15 -51 12 -27 15 -66 13 -142 -2 -102 -1 -106 22 -126 17 -13
21 -21 13 -25 -7 -2 -13 -16 -13 -31 0 -25 1 -25 15 -6 14 18 14 17 15 -13 0
-35 16 -45 23 -15 2 9 3 -9 2 -40 0 -37 3 -58 11 -58 12 0 24 -108 24 -216 0
-52 3 -62 15 -58 11 4 15 -1 15 -17 0 -13 6 -31 13 -39 19 -24 88 -50 140 -52
36 -1 46 -5 42 -16 -3 -9 1 -12 15 -7 15 5 20 2 20 -10 0 -11 5 -15 15 -11 8
3 15 1 15 -4 0 -6 -5 -10 -11 -10 -5 0 -3 -10 5 -22 15 -21 23 -109 9 -95 -7
8 -33 -38 -33 -59 0 -21 18 -17 23 6 4 17 4 16 3 -2 -1 -19 -6 -23 -29 -21
-15 1 -25 -2 -22 -7 3 -5 -3 -18 -15 -30 -11 -11 -20 -27 -20 -35 0 -8 -5 -15
-11 -15 -5 0 -7 5 -4 10 3 6 1 10 -4 10 -6 0 -11 -9 -11 -20 0 -11 -9 -28 -20
-37 -11 -10 -20 -28 -20 -40 0 -16 -6 -23 -20 -23 -22 0 -26 -10 -9 -27 8 -8
3 -13 -20 -18 -19 -4 -31 -13 -31 -23 0 -15 -2 -15 -11 -2 -8 12 -9 10 -4 -7
7 -26 -2 -63 -15 -63 -4 0 -6 10 -3 23 4 20 3 20 -7 4 -7 -10 -9 -21 -6 -24 7
-7 -19 -56 -39 -73 -12 -10 -13 -15 -3 -21 9 -6 5 -15 -16 -34 -35 -32 -41
-68 -19 -115 9 -19 17 -57 19 -85 1 -27 3 -54 4 -60 1 -5 2 -17 1 -25 -1 -13
-2 -13 -11 0 -8 13 -10 12 -10 -2 0 -10 -4 -18 -10 -18 -6 0 -6 -9 0 -25 6
-16 6 -25 0 -25 -6 0 -10 -11 -10 -25 0 -14 -7 -28 -15 -31 -10 -4 -13 -14 -9
-29 3 -13 1 -33 -6 -45 -15 -27 2 -49 39 -51 21 -1 20 -3 -9 -8 -32 -6 -33 -8
-15 -17 11 -6 35 -12 53 -12 18 0 39 -5 45 -10 7 -6 23 -10 37 -10 14 0 63 -2
109 -4 56 -3 88 0 100 9 9 7 24 13 33 13 20 0 58 -46 58 -71 0 -9 5 -20 10
-22 6 -3 5 -4 -2 -3 -20 4 -56 -76 -52 -119 1 -23 -1 -34 -5 -26 -7 10 -13 9
-27 -7 -38 -41 -45 -52 -39 -62 3 -5 0 -8 -7 -5 -8 3 -22 -13 -37 -40 -13 -25
-28 -45 -33 -45 -5 0 -6 -6 -2 -12 4 -7 3 -10 -1 -5 -5 4 -20 -3 -34 -16 -14
-13 -42 -30 -61 -37 -19 -8 -53 -26 -75 -42 -22 -15 -58 -30 -80 -33 -42 -6
-92 -50 -121 -107 -20 -38 -39 -46 -114 -45 -39 0 -56 3 -45 8 18 6 18 8 3 14
-9 4 -22 3 -29 -1 -8 -4 -9 -3 -5 4 4 7 1 12 -8 12 -9 0 -49 14 -91 30 -42 16
-88 30 -103 30 -16 0 -32 4 -38 9 -11 11 -147 31 -207 31 -33 0 -39 -3 -27
-11 13 -9 13 -10 -1 -6 -9 3 -99 13 -200 23 -101 10 -187 20 -190 23 -4 3 -9
44 -12 91 -30 452 -32 468 -52 490 -18 20 -55 125 -55 156 0 26 -15 40 -24 22
-3 -7 -4 3 -1 24 7 44 -4 120 -16 112 -5 -3 -9 1 -9 9 0 13 -59 47 -84 47 -28
0 -35 23 -22 75 12 47 15 51 60 66 26 9 51 20 56 25 6 6 12 44 13 86 2 42 9
83 16 92 8 10 9 16 1 21 -6 3 -7 12 -3 18 4 7 -1 6 -10 -2 -15 -12 -17 -12
-12 1 4 9 -1 18 -9 21 -9 4 -16 13 -16 22 0 8 -4 15 -10 15 -5 0 -10 7 -10 15
0 9 9 15 23 15 12 0 17 4 12 8 -6 4 -17 27 -25 51 -8 24 -20 45 -27 48 -19 7
-16 50 3 57 28 11 -18 51 -87 76 -48 19 -73 22 -137 18 -106 -7 -169 -35 -206
-94 -16 -25 -26 -48 -22 -51 3 -3 2 -11 -3 -17 -22 -28 -20 -143 2 -129 6 3 7
1 3 -5 -6 -10 49 -124 76 -159 15 -19 48 -116 48 -140 0 -12 -7 -26 -17 -31
-12 -7 -15 -18 -10 -47 5 -31 1 -44 -29 -86 -34 -49 -59 -95 -125 -229 -32
-65 -34 -74 -52 -312 -1 -14 -5 -24 -9 -22 -4 3 -10 -12 -14 -33 -4 -21 -10
-42 -14 -48 -4 -5 -12 -50 -18 -100 -6 -49 -15 -117 -19 -150 -4 -33 -7 -66
-6 -72 1 -15 -18 -18 -202 -33 -160 -13 -403 -46 -439 -59 -43 -17 -205 -41
-274 -41 -37 0 -131 5 -209 12 -152 12 -250 4 -343 -28 -38 -14 -78 -15 -273
-9 l-227 7 0 -1116 0 -1116 3750 0 3750 0 0 1246 0 1246 -57 -7 c-32 -4 -64
-12 -72 -18 -8 -7 -16 -11 -18 -9 -2 2 -27 -8 -56 -22 -29 -13 -66 -28 -82
-32 -26 -6 -27 -8 -10 -14 13 -5 2 -8 -29 -7 -30 0 -52 -5 -54 -11 -3 -9 -51
-12 -163 -12 -113 0 -159 -3 -159 -12 0 -8 -32 -9 -120 -5 -103 6 -120 5 -120
-8 0 -11 -11 -15 -40 -15 -22 0 -40 5 -40 10 0 6 -47 10 -120 10 l-120 0 2 30
c2 24 7 30 24 30 12 0 25 -6 27 -12 4 -8 6 -7 6 3 1 11 -11 18 -36 23 -52 8
-160 7 -208 -3 l-40 -9 35 -1 c19 -1 30 -5 23 -9 -6 -4 30 -6 80 -6 51 1 73 0
50 -3 -34 -3 -43 -8 -43 -24 0 -17 -7 -19 -80 -19 -44 0 -80 -4 -80 -9 0 -13
-193 -24 -295 -18 -25 2 -30 -1 -27 -20 3 -19 0 -21 -38 -16 -28 4 -40 2 -40
-7 0 -8 8 -10 24 -6 16 4 26 1 30 -9 6 -17 101 -22 111 -5 3 6 42 10 86 10 51
0 78 -4 74 -10 -4 -6 10 -10 34 -10 28 0 41 -4 41 -13 0 -11 18 -13 80 -10 53
3 80 1 80 -6 0 -7 -41 -11 -120 -11 -73 0 -120 -4 -120 -10 0 -6 -33 -10 -80
-10 -47 0 -80 -4 -80 -10 0 -6 -33 -10 -80 -10 -47 0 -80 -4 -80 -10 0 -5 -18
-10 -39 -10 -23 0 -41 -5 -44 -12 -3 -10 -7 -10 -20 1 -10 8 -27 11 -41 7 -34
-8 -42 10 -12 29 30 20 39 61 21 99 -8 15 -17 43 -21 62 -5 27 -11 34 -29 34
-13 0 -30 6 -37 13 -25 25 -48 27 -65 7 -10 -11 -23 -20 -31 -20 -7 0 -10 -5
-6 -12 4 -7 3 -8 -5 -4 -6 4 -25 -4 -42 -18 -17 -14 -36 -26 -42 -26 -7 0 -6
5 3 11 11 7 4 8 -25 4 -75 -12 -95 -17 -95 -24 0 -14 -62 -71 -71 -65 -5 3 -9
-2 -9 -10 0 -34 -19 -13 -25 27 -7 53 0 205 10 231 5 11 5 17 -1 14 -5 -4 -9
23 -10 61 0 36 -6 77 -13 89 -8 16 -9 27 -1 42 8 14 8 26 0 40 -6 11 -7 37 -4
61 5 29 4 40 -4 35 -11 -6 -28 31 -19 41 3 2 -1 28 -10 55 -8 28 -12 65 -9 82
6 29 -1 63 -19 109 -6 13 -3 16 9 11 13 -5 15 -1 10 24 -4 21 -2 31 9 35 12 4
14 15 10 41 -5 29 -2 36 11 36 10 0 14 4 11 10 -3 5 1 20 11 32 13 18 15 19
10 4 -5 -16 -4 -17 8 -7 8 7 12 19 10 26 -4 10 1 12 17 8 14 -4 20 -2 16 5
-11 17 4 44 20 37 12 -4 14 0 10 15 -3 13 0 20 9 20 8 0 14 -5 14 -12 0 -27
25 13 26 42 2 32 21 63 34 55 4 -3 10 7 13 22 5 26 4 26 -9 8 -13 -17 -14 -17
-14 -1 0 9 5 27 12 39 6 12 11 35 10 50 -2 17 2 26 8 22 11 -7 14 8 4 18 -13
12 -15 115 -3 123 9 5 10 1 7 -14 -4 -12 -2 -20 3 -16 16 10 9 43 -11 54 -20
11 -29 60 -10 60 6 0 10 -9 10 -20 0 -28 17 -25 22 5 4 20 0 25 -25 31 l-30 6
24 20 c13 11 18 16 10 12 -11 -5 -12 -1 -7 22 7 28 7 28 -8 9 -14 -19 -15 -19
-13 10 2 27 -2 30 -33 36 -25 5 -28 7 -11 8 24 1 24 2 -13 36 -28 25 -49 35
-75 36 -35 2 -35 2 -6 7 28 5 27 6 -19 17 -54 12 -81 39 -56 55 13 8 12 10 -2
10 -20 0 -24 16 -7 22 9 3 9 10 0 27 -12 21 -11 22 11 16 17 -5 19 -4 8 4 -12
8 -11 13 8 34 12 13 22 29 22 35 0 7 5 12 11 12 5 0 7 -4 4 -10 -3 -6 4 -10
16 -10 12 0 20 3 16 6 -9 9 30 47 41 40 6 -4 8 3 4 16 -3 15 -2 19 7 14 16
-10 41 12 41 35 0 10 9 21 20 24 15 5 19 12 15 26 -5 14 -2 17 8 13 9 -3 16 3
20 17 5 17 11 21 32 17 20 -4 25 -2 20 9 -4 12 0 14 15 10 18 -5 19 -3 8 10
-11 14 -10 16 15 9 21 -5 27 -4 21 5 -5 9 -2 10 9 6 12 -4 14 -2 10 10 -5 12
-2 15 10 10 8 -3 21 1 27 9 7 8 21 14 31 14 10 0 21 5 24 11 4 6 14 8 24 4 10
-4 12 -3 6 3 -5 6 -19 12 -30 15 -11 3 -3 5 18 4 41 -1 57 13 57 51 0 12 5 22
10 22 6 0 10 9 10 20 0 12 12 32 26 47 25 25 40 99 21 106 -5 1 -10 47 -12
102 -6 149 -6 144 -15 115 -5 -17 -7 -4 -6 39 1 43 -3 66 -11 68 -7 3 -13 11
-13 19 0 9 5 12 10 9 6 -3 10 -2 10 4 0 5 -6 12 -12 14 -10 4 -9 8 2 16 8 6
11 11 6 11 -5 0 -3 6 3 14 6 7 9 20 5 29 -4 10 4 21 23 31 15 8 22 15 14 16
-7 0 -11 6 -7 15 3 9 0 15 -9 15 -8 0 -15 9 -15 20 0 13 -5 18 -15 14 -8 -3 1
11 20 31 29 33 33 43 30 79 -3 25 1 43 8 48 9 6 9 8 -1 8 -7 0 -11 4 -7 9 3 6
-4 15 -15 21 -15 8 -20 8 -20 -2 -1 -8 -6 -6 -14 5 -8 10 -30 21 -50 24 -20 3
-39 10 -42 14 -3 5 -21 9 -40 9 -19 0 -34 5 -34 11 0 5 -4 7 -10 4 -5 -3 -25
6 -45 20 -19 15 -39 24 -45 20 -5 -3 -10 1 -10 9 0 19 3 18 -78 20 -34 1 -68
8 -74 14 -7 7 -19 12 -27 11 -11 0 -10 -3 4 -9 l20 -9 -20 0 c-29 -1 -65 10
-60 19 2 4 -12 8 -33 8 -20 1 -46 3 -57 4 -11 1 -31 -2 -45 -6 -19 -5 -21 -5
-10 3 12 9 11 11 -8 11 -13 0 -21 -3 -19 -7 3 -5 -22 -9 -56 -11 -34 -1 -63
-6 -67 -10 -3 -5 -14 -12 -25 -15 -20 -7 -20 -7 -1 8 11 8 18 15 15 16 -2 0
-11 2 -19 5 -46 13 -78 15 -85 5z m72 -17 c-3 -3 -12 -4 -19 -1 -8 3 -5 6 6 6
11 1 17 -2 13 -5z m821 -159 c-3 -3 -9 2 -12 12 -6 14 -5 15 5 6 7 -7 10 -15
7 -18z m-1324 -10 c-4 -8 -8 -15 -10 -15 -2 0 -4 7 -4 15 0 8 4 15 10 15 5 0
7 -7 4 -15z m1396 1 c0 -3 -4 -8 -10 -11 -5 -3 -10 -1 -10 4 0 6 5 11 10 11 6
0 10 -2 10 -4z m-40 -216 c0 -5 -2 -10 -4 -10 -3 0 -8 5 -11 10 -3 6 -1 10 4
10 6 0 11 -4 11 -10z m5 -40 c-3 -5 -12 -10 -18 -10 -7 0 -6 4 3 10 19 12 23
12 15 0z m-11 -186 c10 -38 0 -41 -12 -5 -6 17 -7 31 -3 31 5 0 12 -12 15 -26z
m-1480 -50 c3 -8 2 -12 -4 -9 -6 3 -10 10 -10 16 0 14 7 11 14 -7z m1133
-1396 c-3 -8 -6 -5 -6 6 -1 11 2 17 5 13 3 -3 4 -12 1 -19z m3 -55 c-11 -17
-11 -17 -6 0 3 10 6 24 7 30 0 9 2 9 5 0 3 -7 0 -20 -6 -30z m-2473 -75 c-3
-8 -6 -5 -6 6 -1 11 2 17 5 13 3 -3 4 -12 1 -19z m2470 0 c-3 -8 -6 -5 -6 6
-1 11 2 17 5 13 3 -3 4 -12 1 -19z m-1057 -67 c-7 -14 -6 -21 3 -24 7 -2 8 -8
3 -13 -5 -5 -11 -4 -13 4 -3 6 -12 12 -20 12 -11 0 -8 6 8 20 30 24 32 25 19
1z m-20 -57 c0 -8 -4 -12 -10 -9 -5 3 -10 10 -10 16 0 5 5 9 10 9 6 0 10 -7
10 -16z m20 -28 c0 -3 -4 -8 -10 -11 -5 -3 -10 -1 -10 4 0 6 5 11 10 11 6 0
10 -2 10 -4z m1020 -10 c0 -11 -19 -15 -25 -6 -3 5 1 10 9 10 9 0 16 -2 16 -4z
m-2493 -62 c-3 -3 -12 -4 -19 -1 -8 3 -5 6 6 6 11 1 17 -2 13 -5z m1480 -66
c-3 -7 -5 -2 -5 12 0 14 2 19 5 13 2 -7 2 -19 0 -25z m-1410 -50 c-3 -8 -6 -5
-6 6 -1 11 2 17 5 13 3 -3 4 -12 1 -19z m1393 -23 c0 -8 -2 -15 -4 -15 -2 0
-6 7 -10 15 -3 8 -1 15 4 15 6 0 10 -7 10 -15z m860 -25 c0 -13 -11 -13 -30 0
-12 8 -11 10 8 10 12 0 22 -4 22 -10z m-2253 -42 c-3 -8 -6 -5 -6 6 -1 11 2
17 5 13 3 -3 4 -12 1 -19z m93 -178 c0 -5 -5 -10 -11 -10 -5 0 -7 5 -4 10 3 6
8 10 11 10 2 0 4 -4 4 -10z m2137 -72 c-3 -8 -6 -5 -6 6 -1 11 2 17 5 13 3 -3
4 -12 1 -19z m-469 -98 c-7 -10 -14 -17 -17 -15 -4 4 18 35 25 35 2 0 -1 -9
-8 -20z m-1661 -67 c-2 -16 -4 -3 -4 27 0 30 2 43 4 28 2 -16 2 -40 0 -55z
m53 -323 c0 -5 -4 -10 -10 -10 -5 0 -10 5 -10 10 0 6 5 10 10 10 6 0 10 -4 10
-10z m3383 -7 c-24 -2 -62 -2 -85 0 -24 2 -5 4 42 4 47 0 66 -2 43 -4z m-3215
-10 c-10 -2 -28 -2 -40 0 -13 2 -5 4 17 4 22 1 32 -1 23 -4z m1019 1 c-3 -3
-12 -4 -19 -1 -8 3 -5 6 6 6 11 1 17 -2 13 -5z m-1178 -51 c-1 -53 -6 -49 -11
10 -2 20 0 37 4 37 4 0 8 -21 7 -47z m748 -29 c-3 -3 -12 -4 -19 -1 -8 3 -5 6
6 6 11 1 17 -2 13 -5z m3063 -14 c0 -19 -7 -20 -160 -20 -100 0 -160 4 -160
10 0 6 47 10 120 10 73 0 120 4 120 10 0 6 18 10 40 10 33 0 40 -3 40 -20z
m-933 4 c-3 -3 -12 -4 -19 -1 -8 3 -5 6 6 6 11 1 17 -2 13 -5z m-1974 -71 c-7
-2 -19 -2 -25 0 -7 3 -2 5 12 5 14 0 19 -2 13 -5z m-921 -65 c-9 -9 -12 -7
-12 12 0 19 3 21 12 12 9 -9 9 -15 0 -24z m2155 -20 c-3 -7 -5 -2 -5 12 0 14
2 19 5 13 2 -7 2 -19 0 -25z"/>
<path d="M4020 5549 c0 -5 5 -7 10 -4 6 3 10 8 10 11 0 2 -4 4 -10 4 -5 0 -10
-5 -10 -11z"/>
<path d="M3982 4970 c0 -14 2 -19 5 -12 2 6 2 18 0 25 -3 6 -5 1 -5 -13z"/>
<path d="M5484 4726 c-3 -8 -4 -22 -2 -31 2 -12 7 -7 15 14 6 18 7 31 2 31 -5
0 -12 -6 -15 -14z"/>
<path d="M5460 4656 c0 -9 5 -16 10 -16 6 0 10 4 10 9 0 6 -4 13 -10 16 -5 3
-10 -1 -10 -9z"/>
<path d="M4910 4120 c0 -5 7 -10 16 -10 8 0 12 5 9 10 -3 6 -10 10 -16 10 -5
0 -9 -4 -9 -10z"/>
<path d="M4931 3224 c0 -11 3 -14 6 -6 3 7 2 16 -1 19 -3 4 -6 -2 -5 -13z"/>
<path d="M4911 2970 c-1 -8 6 -34 14 -57 8 -23 12 -49 9 -58 -3 -8 -1 -15 5
-15 16 0 13 29 -9 90 -10 30 -19 48 -19 40z"/>
<path d="M5960 2390 c-21 -7 -21 -8 -5 -9 11 0 27 4 35 9 18 11 5 11 -30 0z"/>
<path d="M6340 2390 c0 -5 9 -10 20 -10 11 0 20 5 20 10 0 6 -9 10 -20 10 -11
0 -20 -4 -20 -10z"/>
<path d="M6907 2394 c-2 -2 -28 -8 -58 -12 -47 -8 -39 -9 66 -10 68 0 111 3
100 7 -24 10 -102 21 -108 15z"/>
<path d="M5796 2326 c10 -8 21 -12 24 -10 5 6 -21 24 -34 24 -6 0 -1 -6 10
-14z"/>
<path d="M5730 2326 c0 -2 9 -6 20 -9 11 -3 20 -1 20 4 0 5 -9 9 -20 9 -11 0
-20 -2 -20 -4z"/>
<path d="M5600 2240 c0 -5 6 -10 14 -10 8 0 23 -3 33 -7 16 -6 16 -5 4 10 -15
18 -51 23 -51 7z"/>
</g>
</svg>
